<?xml version="1.0" encoding="UTF-8" standalone="no"?>
<svg
   id="logo-4"
   width="93.202591"
   height="38.485802"
   viewBox="0 0 93.202591 38.485802"
   fill="none"
   version="1.1"
   sodipodi:docname="logo-wide.svg"
   inkscape:version="1.1.2 (0a00cf5339, 2022-02-04, custom)"
   xmlns:inkscape="http://www.inkscape.org/namespaces/inkscape"
   xmlns:sodipodi="http://sodipodi.sourceforge.net/DTD/sodipodi-0.dtd"
   xmlns="http://www.w3.org/2000/svg"
   xmlns:svg="http://www.w3.org/2000/svg">
  <defs
     id="defs31" />
  <sodipodi:namedview
     id="namedview29"
     pagecolor="#ffffff"
     bordercolor="#666666"
     borderopacity="1.0"
     inkscape:pageshadow="2"
     inkscape:pageopacity="0.0"
     inkscape:pagecheckerboard="0"
     showgrid="false"
     inkscape:zoom="6.315"
     inkscape:cx="77.909739"
     inkscape:cy="9.5011876"
     inkscape:window-width="1920"
     inkscape:window-height="1007"
     inkscape:window-x="1920"
     inkscape:window-y="0"
     inkscape:window-maximized="1"
     inkscape:current-layer="logo-4" />
  <path
     d="m 60.842532,35.116715 c 1.1682,0 2.1152,-0.9471 2.1152,-2.1153 0,-1.1682 -0.947,-2.1152 -2.1152,-2.1152 -1.1682,0 -2.1153,0.947 -2.1153,2.1152 0,1.1682 0.9471,2.1153 2.1153,2.1153 z"
     class="cneutral"
     fill="#394149"
     id="path20"
     style="fill:#e6e7e6;fill-opacity:1" />
  <path
     d="m 34.419228,19.81153 c 5.4708,0 9.9057,-4.435 9.9057,-9.9058 0,-5.47077 -4.4349,-9.90573 -9.9057,-9.90573 -5.4708,0 -9.9058,4.43496 -9.9058,9.90573 0,5.4708 4.435,9.9058 9.9058,9.9058 z"
     class="ccompli1"
     fill="#394149"
     id="path22"
     style="fill:#e6e7e6;fill-opacity:1" />
  <path
     d="m 56.563128,19.81153 c 5.4708,0 9.9057,-4.435 9.9057,-9.9058 0,-5.47077 -4.4349,-9.90573 -9.9057,-9.90573 -5.4708,0 -9.9058,4.43496 -9.9058,9.90573 0,5.4708 4.435,9.9058 9.9058,9.9058 z"
     class="ccompli2"
     fill="#394149"
     id="path24"
     style="fill:#e6e7e6;fill-opacity:1" />
  <path
     d="M 22.181028,0 H 2.3789884 V 19.80203 H 22.181028 Z"
     class="ccustom"
     fill="#394149"
     id="path26"
     style="fill:#e6e7e6;fill-opacity:1" />
  <path
     d="M 4.6977897,34.665451 H 3.2457456 V 24.586557 H 0 v -1.27345 h 7.9357703 v 1.27345 H 4.6977897 Z"
     style="font-size:15.9026px;line-height:1.25;font-family:'Droid Sans Mono';-inkscape-font-specification:'Droid Sans Mono';fill:#e6e7e6;stroke-width:0.397567;fill-opacity:1"
     id="path28574" />
  <path
     d="M 17.261465,30.674271 H 11.2514 q 0.06212,2.911853 2.67114,2.911853 1.514163,0 2.873028,-0.590135 v 1.24239 q -1.28898,0.582371 -2.826439,0.582371 -1.90241,0 -3.043857,-1.156976 -1.141446,-1.164742 -1.141446,-3.199156 0,-2.065475 1.048267,-3.269041 1.056032,-1.211331 2.818674,-1.211331 1.646167,0 2.62455,1.040503 0.986148,1.040502 0.986148,2.772084 z M 11.28246,29.52506 h 4.449311 q 0,-2.368307 -2.112064,-2.368307 -2.135359,0 -2.337247,2.368307 z"
     style="font-size:15.9026px;line-height:1.25;font-family:'Droid Sans Mono';-inkscape-font-specification:'Droid Sans Mono';fill:#e6e7e6;stroke-width:0.397567;fill-opacity:1"
     id="path28576" />
  <path
     d="m 26.4008,34.665451 h -6.693379 v -0.970618 l 5.124861,-6.491491 h -4.868618 v -1.063797 h 6.297368 v 1.133682 l -5.023918,6.328427 H 26.4008 Z"
     style="font-size:15.9026px;line-height:1.25;font-family:'Droid Sans Mono';-inkscape-font-specification:'Droid Sans Mono';fill:#e6e7e6;stroke-width:0.397567;fill-opacity:1"
     id="path28578" />
  <path
     d="m 35.757554,33.50071 v 1.071562 q -1.009443,0.248478 -1.956766,0.248478 -2.810908,0 -2.810908,-2.67114 v -4.946268 h -2.07324 v -0.729904 l 2.07324,-0.380482 0.5979,-2.228539 h 0.815319 v 2.275128 h 3.401044 v 1.063797 h -3.401044 v 4.946268 q 0,1.514164 1.490869,1.514164 0.722139,0 1.863586,-0.163064 z"
     style="font-size:15.9026px;line-height:1.25;font-family:'Droid Sans Mono';-inkscape-font-specification:'Droid Sans Mono';fill:#e6e7e6;stroke-width:0.397567;fill-opacity:1"
     id="path28580" />
  <path
     d="m 45.890803,30.674271 h -6.010065 q 0.06212,2.911853 2.67114,2.911853 1.514164,0 2.873028,-0.590135 v 1.24239 q -1.28898,0.582371 -2.826438,0.582371 -1.902411,0 -3.043857,-1.156976 -1.141447,-1.164742 -1.141447,-3.199156 0,-2.065475 1.048267,-3.269041 1.056032,-1.211331 2.818674,-1.211331 1.646168,0 2.62455,1.040503 0.986148,1.040502 0.986148,2.772084 z M 39.911798,29.52506 h 4.449311 q 0,-2.368307 -2.112064,-2.368307 -2.135359,0 -2.337247,2.368307 z"
     style="font-size:15.9026px;line-height:1.25;font-family:'Droid Sans Mono';-inkscape-font-specification:'Droid Sans Mono';fill:#e6e7e6;stroke-width:0.397567;fill-opacity:1"
     id="path28582" />
  <path
     d="m 55.146614,26.333669 -0.380482,1.28898 q -0.955088,-0.349422 -1.739347,-0.349422 -1.265686,0 -1.956766,0.722139 -0.683314,0.714375 -0.683314,2.07324 v 4.596845 h -1.41322 v -8.525906 h 1.149212 l 0.170828,1.560753 h 0.06212 q 0.590135,-0.924028 1.265685,-1.32004 0.67555,-0.396012 1.661698,-0.396012 0.916263,0 1.863586,0.349423 z"
     style="font-size:15.9026px;line-height:1.25;font-family:'Droid Sans Mono';-inkscape-font-specification:'Droid Sans Mono';fill:#e6e7e6;stroke-width:0.397567;fill-opacity:1"
     id="path28584" />
  <path
     d="m 69.969885,30.293789 -3.051623,-4.154244 h 1.607343 l 2.251833,3.183626 2.259598,-3.183626 h 1.607343 l -3.067152,4.154244 3.206921,4.371662 H 73.18457 l -2.407132,-3.385514 -2.414896,3.385514 h -1.607343 z"
     style="font-size:15.9026px;line-height:1.25;font-family:'Droid Sans Mono';-inkscape-font-specification:'Droid Sans Mono';fill:#e6e7e6;stroke-width:0.397567;fill-opacity:1"
     id="path28588" />
  <path
     d="m 76.189603,26.139545 h 1.459809 l 2.034415,5.078272 q 0.636725,1.591813 0.69108,2.251833 h 0.04659 q 0.178594,-0.869673 0.698845,-2.267363 l 1.855821,-5.062742 h 1.467574 l -3.688347,9.636293 q -0.520251,1.3511 -1.211331,2.026649 -0.69108,0.683315 -1.910176,0.683315 -0.667785,0 -1.30451,-0.132004 v -1.125916 q 0.481427,0.09318 1.056032,0.09318 0.745435,0 1.156977,-0.318363 0.419306,-0.318362 0.745434,-1.094856 L 79.738182,34.7431 Z"
     style="font-size:15.9026px;line-height:1.25;font-family:'Droid Sans Mono';-inkscape-font-specification:'Droid Sans Mono';fill:#e6e7e6;stroke-width:0.397567;fill-opacity:1"
     id="path28590" />
  <path
     d="m 93.202591,34.665451 h -6.69338 v -0.970618 l 5.124862,-6.491491 h -4.868619 v -1.063797 h 6.297368 v 1.133682 l -5.023917,6.328427 h 5.163686 z"
     style="font-size:15.9026px;line-height:1.25;font-family:'Droid Sans Mono';-inkscape-font-specification:'Droid Sans Mono';fill:#e6e7e6;stroke-width:0.397567;fill-opacity:1"
     id="path28592" />
</svg>
